<?xml version="1.0" encoding="UTF-8" standalone="no"?>
<svg
  xmlns:dc="http://purl.org/dc/elements/1.1/"
  xmlns:cc="http://creativecommons.org/ns#"
  xmlns:rdf="http://www.w3.org/1999/02/22-rdf-syntax-ns#"
  xmlns:svg="http://www.w3.org/2000/svg"
  xmlns="http://www.w3.org/2000/svg"
  xmlns:xlink="http://www.w3.org/1999/xlink"
  x="0px"
  y="0px"
  viewBox="0 0 612 207"
  style="enable-background:new 0 0 612 207;"
  xml:space="preserve"
  version="1.1"
  id="svg2">

	<style type="text/css">
	  .st0{fill:#4285F4;}
	  .st1{fill:#EA4335;}
	  .st2{fill:#FBBC05;}
	  .st3{fill:#34A853;}
	</style>
	
	<path id="path2998" class="st0" d="M150.8,72.8H79.5V94h50.6c-2.5,29.7-27.2,42.4-50.5,42.4c-29.8,0-55.9-23.5-55.9-56.4
		c0-32,24.8-56.7,55.9-56.7c24,0,38.2,15.3,38.2,15.3l14.8-15.4c0,0-19-21.2-53.7-21.2C34.7,2,0.5,39.3,0.5,79.6
		c0,39.5,32.2,78,79.5,78c41.6,0,72.1-28.5,72.1-70.7C152.1,77.9,150.8,72.8,150.8,72.8L150.8,72.8z"/>
	<path id="path3000" class="st1" d="M209.3,57.5c-29.3,0-50.3,22.9-50.3,49.6c0,27.1,20.4,50.4,50.6,50.4c27.4,0,49.8-20.9,49.8-49.8
		C259.5,74.5,233.4,57.5,209.3,57.5L209.3,57.5z M209.6,77.1c14.4,0,28,11.6,28,30.4c0,18.4-13.6,30.3-28.1,30.3
		c-16,0-28.5-12.8-28.5-30.5C181,90,193.4,77.1,209.6,77.1L209.6,77.1z"/>
	<path id="path3005" class="st2" d="M318.6,57.5c-29.3,0-50.3,22.9-50.3,49.6c0,27.1,20.4,50.4,50.6,50.4c27.4,0,49.8-20.9,49.8-49.8
		C368.8,74.5,342.7,57.5,318.6,57.5L318.6,57.5z M318.9,77.1c14.4,0,28,11.6,28,30.4c0,18.4-13.6,30.3-28.1,30.3
		c-16,0-28.5-12.8-28.5-30.5C290.3,90,302.7,77.1,318.9,77.1L318.9,77.1z"/>
	<path id="path3007" class="st0" d="M425.8,57.5c-26.9,0-48,23.5-48,50c0,30.1,24.5,50,47.5,50c14.2,0,21.8-5.7,27.4-12.1v9.9
		c0,17.2-10.5,27.6-26.3,27.6c-15.3,0-22.9-11.4-25.6-17.8l-19.2,8c6.8,14.4,20.5,29.4,45,29.4c26.7,0,47.1-16.8,47.1-52.1V60.5h-21
		V69C446.3,62.1,437.5,57.5,425.8,57.5L425.8,57.5z M427.8,77.1c13.2,0,26.7,11.3,26.7,30.5c0,19.5-13.5,30.3-27,30.3
		c-14.3,0-27.7-11.6-27.7-30.1C399.8,88.6,413.7,77.1,427.8,77.1L427.8,77.1z"/>
	<path id="path3011" class="st1" d="M566.9,57.4c-25.4,0-46.6,20.2-46.6,49.9c0,31.5,23.7,50.2,49.1,50.2c21.2,0,34.1-11.6,41.9-21.9
		L594,124.1c-4.5,7-12,13.8-24.5,13.8c-14.1,0-20.5-7.7-24.5-15.2l67-27.8l-3.5-8.2C602,70.7,586.9,57.4,566.9,57.4L566.9,57.4z
		 M567.8,76.6c9.1,0,15.7,4.9,18.5,10.7L541.5,106C539.6,91.5,553.3,76.6,567.8,76.6L567.8,76.6z"/>
	<path id="path3015" class="st3" d="M488.3,154.5h22V7.2h-22V154.5z"/>
</svg>